<?xml version="1.0" encoding="UTF-8" standalone="no"?>
<!-- Created with Inkscape (http://www.inkscape.org/) -->

<svg
   width="210mm"
   height="210mm"
   version="1.1"
   viewBox="0 0 210 210"
   id="svg13"
   sodipodi:docname="Dsukeロゴ.svg"
   inkscape:version="1.3.2 (091e20e, 2023-11-25)"
   xmlns:inkscape="http://www.inkscape.org/namespaces/inkscape"
   xmlns:sodipodi="http://sodipodi.sourceforge.net/DTD/sodipodi-0.dtd"
   xmlns="http://www.w3.org/2000/svg"
   xmlns:svg="http://www.w3.org/2000/svg">
  <defs
     id="defs13" />
  <sodipodi:namedview
     id="namedview13"
     pagecolor="#ffffff"
     bordercolor="#000000"
     borderopacity="0.25"
     inkscape:showpageshadow="2"
     inkscape:pageopacity="0.0"
     inkscape:pagecheckerboard="0"
     inkscape:deskcolor="#d1d1d1"
     inkscape:document-units="mm"
     inkscape:zoom="1.0104563"
     inkscape:cx="396.85039"
     inkscape:cy="396.85039"
     inkscape:window-width="1664"
     inkscape:window-height="965"
     inkscape:window-x="0"
     inkscape:window-y="25"
     inkscape:window-maximized="0"
     inkscape:current-layer="svg13" />
  <g
     stroke="#000"
     id="g13"
     style="fill:#434343;fill-opacity:1;stroke:#434343;stroke-opacity:1">
    <g
       transform="matrix(1.6323 1.1557 -1.1557 1.6323 112.09 -196.52)"
       display="none"
       fill="none"
       stroke-linejoin="round"
       stroke-width="1.465"
       id="g2"
       style="fill:#434343;fill-opacity:1;stroke:#434343;stroke-opacity:1">
      <path
         d="m94.414 182.91c-0.59851-0.0147-1.1968-0.0355-1.7958-0.0222-3.5341 0.0781-7.1949 0.79926-10.001 2.9492-2.0523 1.5724-3.5576 3.9233-3.8545 6.4916-0.14846 1.2841 0.0047 2.6066 0.47646 3.8101 0.47174 1.2035 1.2649 2.284 2.2939 3.0665 1.1968 0.9101 2.6955 1.4004 4.1987 1.434s3.0058-0.38105 4.3103-1.1286c1.3046-0.74756 2.4124-1.8216 3.2525-3.0686 0.84008-1.247 1.4154-2.6643 1.7441-4.1315 0.65734-2.9344 0.32765-6.0195-0.14856-7.71-0.04489-0.16268-0.47621-1.6905-0.47621-1.6905z"
         display="inline"
         id="path1"
         style="fill:#434343;fill-opacity:1;stroke:#434343;stroke-opacity:1" />
      <path
         d="m103.34 108.29c-5.6001 3e-3 -11.198 1.2711-16.246 3.6985-5.7687 2.7741-10.462 6.9033-14.128 12.151 5.1949 17.233 11.132 34.291 18.446 50.736 1.1534 2.5934 2.3235 5.1921 3.1254 7.9127 2.933 0.072 5.862 0.39833 8.7979 0.39739 6.401-2e-3 12.794-1.6802 18.371-4.8224 5.5767-3.1422 10.324-7.7412 13.642-13.215 3.3179-5.474 5.1988-11.81 5.4043-18.208 0.20551-6.3978-1.2648-12.842-4.2246-18.518-2.9597-5.6757-7.402-10.57-12.766-14.064-5.3636-3.4936-11.636-5.5785-18.024-5.9914-0.79846-0.0516-1.5988-0.0774-2.3988-0.077z"
         display="inline"
         id="path2"
         style="fill:#434343;fill-opacity:1;stroke:#434343;stroke-opacity:1" />
    </g>
    <g
       transform="matrix(1.6323 1.1557 -1.1557 1.6323 116.7 -238.06)"
       id="g6"
       style="fill:#434343;fill-opacity:1;stroke:#434343;stroke-opacity:1">
      <path
         d="m94.414 182.91c-0.59851-0.0147-1.1968-0.0355-1.7958-0.0222-3.5341 0.0781-7.1949 0.79926-10.001 2.9492-2.0523 1.5724-3.5576 3.9233-3.8545 6.4916-0.14846 1.2841 0.0047 2.6066 0.47646 3.8101 0.47174 1.2035 1.2649 2.284 2.2939 3.0665 1.1968 0.9101 2.6955 1.4004 4.1987 1.434s3.0058-0.38105 4.3103-1.1286c1.3046-0.74756 2.4124-1.8216 3.2525-3.0686 0.84008-1.247 1.4154-2.6643 1.7441-4.1315 0.65734-2.9344 0.32765-6.0195-0.14856-7.71-0.04489-0.16268-0.47621-1.6905-0.47621-1.6905z"
         fill-rule="evenodd"
         stroke-linecap="round"
         stroke-linejoin="round"
         stroke-width="1.465"
         id="path3"
         style="fill:#434343;fill-opacity:1;stroke:#434343;stroke-opacity:1" />
      <path
         transform="translate(4.9075 -.63003)"
         d="m55.156 140.44c3.4615-1.0172 6.6008-3.1034 8.8793-5.9008 2.2785-2.7974 3.6863-6.2939 3.9821-9.8896-1.4717-2.7854-2.2074-5.9555-2.1129-9.1044 0.09447-3.1489 1.0189-6.2692 2.6549-8.9613 2.4345-4.0062 6.2918-6.9143 10.145-9.5849 4.2057-2.9152 8.5217-5.6714 12.936-8.2605-1.5798 4.192-4.1772 7.9964-7.5061 10.994-3.6533 3.2899-8.1227 5.585-11.709 8.9476-1.7932 1.6813-3.3644 3.6449-4.3209 5.9093-0.95649 2.2644-1.2636 4.8516-0.56017 7.207 0.1289 0.43162 0.29043 0.85342 0.40473 1.2891 0.11429 0.43571 0.1808 0.89158 0.11475 1.3372-0.0113 0.0762-0.02644 0.15189-0.04535 0.2266-0.36589 0.45943-0.73323 0.9177-1.102 1.3748-2.9892 3.7051-6.0858 7.3466-9.628 10.527-1.846 1.6576-3.8084 3.1855-5.868 4.5686 1.2649-0.0942 2.5197-0.32269 3.7367-0.68029z"
         fill-rule="evenodd"
         stroke-linecap="round"
         stroke-width="1.465"
         style="paint-order:normal;fill:#434343;fill-opacity:1;stroke:#434343;stroke-opacity:1"
         id="path4" />
      <path
         d="m73.315 124.12 20.896 58.808z"
         fill="none"
         stroke-linejoin="round"
         stroke-width="1.815"
         id="path5"
         style="fill:#434343;fill-opacity:1;stroke:#434343;stroke-opacity:1" />
      <path
         d="m121.6 131.9c-5.2809-11.107-29.667-29.31-48.959-7.4446 3.5158-5.1413 8.3898-9.4769 14.158-12.251 5.0476-2.4274 10.646-3.6955 16.246-3.6985 0.80001-4e-4 1.6004 0.0254 2.3988 0.077 6.3877 0.41285 12.66 2.4978 18.024 5.9914 5.3636 3.4936 9.8059 8.388 12.766 14.064 2.9597 5.6757 4.4301 12.12 4.2246 18.518-0.2055 6.3977-2.0864 12.734-5.4043 18.208-3.3179 5.474-8.0653 10.073-13.642 13.215-5.5767 3.1422-11.97 4.8204-18.371 4.8224-2.9359 9.4e-4 -5.8782-0.41151-8.6612-0.58965 19.762-2.7704 39.004-26.129 27.22-50.912z"
         fill-rule="evenodd"
         stroke-linejoin="round"
         stroke-width="1.465"
         id="path6"
         style="fill:#434343;fill-opacity:1;stroke:#434343;stroke-opacity:1" />
    </g>
    <g
       transform="matrix(1.6323 1.1557 -1.1557 1.6323 112.09 -196.52)"
       display="none"
       fill="none"
       stroke-linejoin="round"
       stroke-width="1.465"
       id="g12"
       style="fill:#434343;fill-opacity:1;stroke:#434343;stroke-opacity:1">
      <path
         d="m94.414 182.91c-0.59851-0.0147-1.1968-0.0355-1.7958-0.0222-3.5341 0.0781-7.1949 0.79926-10.001 2.9492-2.0523 1.5724-3.5576 3.9233-3.8545 6.4916-0.14846 1.2841 0.0047 2.6066 0.47646 3.8101 0.47174 1.2035 1.2649 2.284 2.2939 3.0665 1.1968 0.9101 2.6955 1.4004 4.1987 1.434s3.0058-0.38105 4.3103-1.1286c1.3046-0.74756 2.4124-1.8216 3.2525-3.0686 0.84008-1.247 1.4154-2.6643 1.7441-4.1315 0.65734-2.9344 0.32765-6.0195-0.14856-7.71-0.04489-0.16268-0.47621-1.6905-0.47621-1.6905z"
         id="path7"
         style="fill:#434343;fill-opacity:1;stroke:#434343;stroke-opacity:1" />
      <path
         transform="translate(4.9075 -.63003)"
         d="m58.172 150.04c0.12755-3.3014 0.64801-6.5875 1.5469-9.7668 1.6159-5.7154 4.4661-11.078 8.2989-15.616-2.6503-5.6604-2.4429-12.574 0.54197-18.066 2.9754-5.4739 8.3668-9.2834 14.091-11.743 3.635-1.5617 7.47-2.6574 11.381-3.2518"
         style="paint-order:normal;fill:#434343;fill-opacity:1;stroke:#434343;stroke-opacity:1"
         id="path8" />
      <path
         d="m103.34 108.29c-5.6001 3e-3 -11.198 1.2711-16.246 3.6985-5.7687 2.7741-10.805 7.0556-14.47 12.303 5.1949 17.233 11.474 34.138 18.789 50.584 1.1534 2.5934 2.3235 5.1921 3.1254 7.9127 2.933 0.072 5.862 0.39833 8.7979 0.39739 6.401-2e-3 12.794-1.6802 18.371-4.8224 5.5767-3.1422 10.324-7.7412 13.642-13.215 3.3179-5.474 5.1988-11.81 5.4043-18.208 0.20551-6.3978-1.2648-12.842-4.2246-18.518-2.9597-5.6757-7.402-10.57-12.766-14.064-5.3636-3.4936-11.636-5.5785-18.024-5.9914-0.79846-0.0516-1.5988-0.0774-2.3988-0.077z"
         id="path9"
         style="fill:#434343;fill-opacity:1;stroke:#434343;stroke-opacity:1" />
      <path
         d="m94.414 182.91c-0.59851-0.0147-1.1968-0.0355-1.7958-0.0222-3.5341 0.0781-7.1949 0.79926-10.001 2.9492-2.0523 1.5724-3.5576 3.9233-3.8545 6.4916-0.14846 1.2841 0.0047 2.6066 0.47646 3.8101 0.47174 1.2035 1.2649 2.284 2.2939 3.0665 1.1968 0.9101 2.6955 1.4004 4.1987 1.434s3.0058-0.38105 4.3103-1.1286c1.3046-0.74756 2.4124-1.8216 3.2525-3.0686 0.84008-1.247 1.4154-2.6643 1.7441-4.1315 0.65734-2.9344 0.32765-6.0195-0.14856-7.71-0.04489-0.16268-0.47621-1.6905-0.47621-1.6905z"
         id="path10"
         style="fill:#434343;fill-opacity:1;stroke:#434343;stroke-opacity:1" />
      <path
         transform="translate(4.9075 -.63003)"
         d="m58.172 150.04c0.12755-3.3014 0.64801-6.5875 1.5469-9.7668 1.6159-5.7154 4.4661-11.078 8.2989-15.616-2.7033-5.645-2.4948-12.593 0.54197-18.066 2.2874-4.1222 6.0122-7.3161 10.145-9.5849 4.169-2.2889 8.8115-3.7106 13.547-4.1488"
         style="paint-order:normal;fill:#434343;fill-opacity:1;stroke:#434343;stroke-opacity:1"
         id="path11" />
      <path
         d="m72.624 124.29c5.1949 17.233 11.474 34.138 18.789 50.584 1.1534 2.5934 2.3235 5.1921 3.1254 7.9127 19.612-2.6643 38.854-26.022 27.07-50.806-5.2809-11.107-29.842-29.45-48.984-7.6909z"
         id="path12"
         style="fill:#434343;fill-opacity:1;stroke:#434343;stroke-opacity:1" />
    </g>
  </g>
</svg>
