<?xml version="1.0" encoding="UTF-8" standalone="no"?>
<!-- Created with Inkscape (http://www.inkscape.org/) -->

<svg
   width="610mm"
   height="210mm"
   viewBox="0 0 610 210"
   version="1.1"
   id="svg1"
   sodipodi:docname="DsukeロゴFullName.svg"
   inkscape:version="1.3.2 (091e20e, 2023-11-25)"
   xmlns:inkscape="http://www.inkscape.org/namespaces/inkscape"
   xmlns:sodipodi="http://sodipodi.sourceforge.net/DTD/sodipodi-0.dtd"
   xmlns="http://www.w3.org/2000/svg"
   xmlns:svg="http://www.w3.org/2000/svg">
  <sodipodi:namedview
     id="namedview1"
     pagecolor="#ffffff"
     bordercolor="#000000"
     borderopacity="0.25"
     inkscape:showpageshadow="2"
     inkscape:pageopacity="0.0"
     inkscape:pagecheckerboard="0"
     inkscape:deskcolor="#d1d1d1"
     inkscape:document-units="mm"
     inkscape:zoom="0.31830048"
     inkscape:cx="1223.6865"
     inkscape:cy="175.93439"
     inkscape:window-width="1920"
     inkscape:window-height="1027"
     inkscape:window-x="0"
     inkscape:window-y="25"
     inkscape:window-maximized="1"
     inkscape:current-layer="layer1" />
  <defs
     id="defs1">
    <rect
       x="981.90613"
       y="257.69482"
       width="850.83722"
       height="257.69482"
       id="rect3" />
    <rect
       x="1055.2159"
       y="288.79593"
       width="919.70398"
       height="204.37865"
       id="rect2" />
    <rect
       x="1030.7793"
       y="306.56799"
       width="890.82434"
       height="175.49905"
       id="rect1" />
    <linearGradient
       id="swatch16"
       inkscape:swatch="solid">
      <stop
         style="stop-color:#000000;stop-opacity:1;"
         offset="0"
         id="stop16" />
    </linearGradient>
    <inkscape:path-effect
       effect="spiro"
       id="path-effect11"
       is_visible="true"
       lpeversion="1" />
    <inkscape:path-effect
       effect="spiro"
       id="path-effect8"
       is_visible="true"
       lpeversion="1" />
    <inkscape:path-effect
       effect="spiro"
       id="path-effect4"
       is_visible="true"
       lpeversion="1" />
    <inkscape:path-effect
       effect="spiro"
       id="path-effect20"
       is_visible="true"
       lpeversion="1" />
    <inkscape:path-effect
       effect="spiro"
       id="path-effect19"
       is_visible="true"
       lpeversion="1" />
    <inkscape:path-effect
       effect="spiro"
       id="path-effect18"
       is_visible="true"
       lpeversion="1" />
    <inkscape:path-effect
       effect="spiro"
       id="path-effect17"
       is_visible="true"
       lpeversion="1" />
    <inkscape:path-effect
       effect="fillet_chamfer"
       id="path-effect16"
       is_visible="true"
       lpeversion="1"
       nodesatellites_param="F,0,0,1,0,0,0,1 @ F,0,0,1,0,0,0,1 @ F,0,0,1,0,0,0,1 @ F,0,0,1,0,0,0,1 @ F,0,0,1,0,0,0,1 @ F,0,0,1,0,0,0,1 @ F,0,0,1,0,0,0,1 @ F,0,0,1,0,0,0,1 @ F,0,0,1,0,0,0,1 @ F,0,0,1,0,0,0,1 @ F,0,0,1,0,0,0,1 @ F,0,0,1,0,0,0,1 @ F,0,0,1,0,0,0,1 @ F,0,0,1,0,0,0,1 @ F,0,0,1,0,0,0,1 @ F,0,0,1,0,0,0,1 @ F,0,0,1,0,0,0,1 @ F,0,0,1,0,21.334385,0,1 @ F,0,0,1,0,0,0,1 @ F,0,0,1,0,0,0,1 @ F,0,0,1,0,0,0,1 @ F,0,0,1,0,0,0,1 @ F,0,0,1,0,0,0,1 | F,0,0,1,0,0,0,1 @ F,0,0,1,0,0,0,1 @ F,0,0,1,0,0,0,1 | F,0,0,1,0,0,0,1 @ F,0,0,1,0,0,0,1 @ F,0,0,1,0,0,0,1 | F,0,0,1,0,0,0,1 @ F,0,0,1,0,0,0,1 @ F,0,0,1,0,0,0,1 @ F,0,0,1,0,0,0,1 | F,0,0,1,0,0,0,1 @ F,0,0,1,0,0,0,1 @ F,0,0,1,0,0,0,1"
       radius="0"
       unit="px"
       method="auto"
       mode="F"
       chamfer_steps="1"
       flexible="false"
       use_knot_distance="true"
       apply_no_radius="true"
       apply_with_radius="true"
       only_selected="false"
       hide_knots="false" />
    <inkscape:path-effect
       effect="spiro"
       id="path-effect13"
       is_visible="true"
       lpeversion="1" />
    <inkscape:path-effect
       effect="bspline"
       id="path-effect12"
       is_visible="true"
       lpeversion="1.3"
       weight="33.333333"
       steps="2"
       helper_size="0"
       apply_no_weight="true"
       apply_with_weight="true"
       only_selected="false"
       uniform="false" />
    <inkscape:perspective
       sodipodi:type="inkscape:persp3d"
       inkscape:vp_x="0 : 61.499994 : 1"
       inkscape:vp_y="0 : 999.99995 : 0"
       inkscape:vp_z="210.00001 : 61.499994 : 1"
       inkscape:persp3d-origin="105.00001 : 11.999997 : 1"
       id="perspective3" />
  </defs>
  <g
     inkscape:label="Layer 1"
     inkscape:groupmode="layer"
     id="layer1">
    <g
       id="g7"
       transform="matrix(1.6322751,1.1557152,-1.1557152,1.6322751,112.08588,-196.51537)"
       style="display:none"
       inkscape:label="大きめ">
      <path
         d="m 94.413625,182.9128 c -0.598513,-0.0147 -1.196793,-0.0355 -1.795756,-0.0222 -3.534142,0.0781 -7.194857,0.79926 -10.00094,2.94917 -2.052268,1.57238 -3.557632,3.92333 -3.854545,6.4916 -0.148457,1.28414 0.0047,2.60656 0.476456,3.8101 0.471736,1.20354 1.264936,2.28402 2.293917,3.06648 1.19684,0.9101 2.695521,1.40042 4.19871,1.43402 1.503189,0.0336 3.005777,-0.38105 4.310332,-1.12861 1.304554,-0.74756 2.41243,-1.82156 3.252514,-3.06855 0.840084,-1.24698 1.415412,-2.66433 1.74408,-4.13153 0.657336,-2.93441 0.32765,-6.01954 -0.148559,-7.71 -0.04489,-0.16268 -0.476209,-1.69048 -0.476209,-1.69048 z"
         style="display:inline;fill:none;fill-rule:evenodd;stroke:#000000;stroke-width:1.465;stroke-linejoin:round"
         id="path5"
         sodipodi:nodetypes="scsssssssscs" />
      <path
         d="m 103.34039,108.2903 c -5.600089,0.003 -11.198447,1.27113 -16.246037,3.69848 -5.768673,2.77413 -10.462467,6.90333 -14.128163,12.15081 5.194863,17.23268 11.132068,34.2908 18.446246,50.73631 1.153439,2.59344 2.323463,5.19207 3.125391,7.9127 2.932966,0.072 5.862023,0.39833 8.797913,0.39739 6.40104,-0.002 12.79424,-1.68025 18.37097,-4.82244 5.57674,-3.14219 10.3242,-7.74117 13.64206,-13.21522 3.31787,-5.47404 5.19882,-11.81045 5.40432,-18.20819 0.20551,-6.39775 -1.26483,-12.84204 -4.22455,-18.51773 -2.95971,-5.67569 -7.40204,-10.57013 -12.76562,-14.06374 -5.36358,-3.49362 -11.63599,-5.57852 -18.02371,-5.99137 -0.79846,-0.0516 -1.59881,-0.0774 -2.39882,-0.077 z"
         style="display:inline;fill:none;fill-opacity:1;fill-rule:evenodd;stroke:#000000;stroke-width:1.465;stroke-linejoin:round"
         id="path7"
         sodipodi:nodetypes="sscsccsssssss" />
    </g>
    <g
       id="g3"
       transform="matrix(1.6322751,1.1557152,-1.1557152,1.6322751,112.08588,-196.51537)"
       style="display:none"
       inkscape:label="大きめ">
      <path
         d="m 94.413625,182.9128 c -0.598513,-0.0147 -1.196793,-0.0355 -1.795756,-0.0222 -3.534142,0.0781 -7.194857,0.79926 -10.00094,2.94917 -2.052268,1.57238 -3.557632,3.92333 -3.854545,6.4916 -0.148457,1.28414 0.0047,2.60656 0.476456,3.8101 0.471736,1.20354 1.264936,2.28402 2.293917,3.06648 1.19684,0.9101 2.695521,1.40042 4.19871,1.43402 1.503189,0.0336 3.005777,-0.38105 4.310332,-1.12861 1.304554,-0.74756 2.41243,-1.82156 3.252514,-3.06855 0.840084,-1.24698 1.415412,-2.66433 1.74408,-4.13153 0.657336,-2.93441 0.32765,-6.01954 -0.148559,-7.71 -0.04489,-0.16268 -0.476209,-1.69048 -0.476209,-1.69048 z"
         style="fill:none;fill-rule:evenodd;stroke:#000000;stroke-width:1.465;stroke-linejoin:round"
         id="path1"
         sodipodi:nodetypes="scsssssssscs" />
      <path
         style="fill:none;fill-opacity:1;fill-rule:evenodd;stroke:#000000;stroke-width:1.465;stroke-linecap:butt;stroke-linejoin:round;stroke-dasharray:none;stroke-opacity:1;paint-order:normal"
         d="m 58.17153,150.03558 c 0.127554,-3.30143 0.648008,-6.5875 1.546878,-9.76677 1.615894,-5.71535 4.466092,-11.07838 8.298927,-15.61553 -2.650285,-5.66044 -2.442869,-12.5743 0.54197,-18.06569 2.975358,-5.47394 8.366848,-9.283404 14.091242,-11.7427 3.635048,-1.561678 7.469988,-2.657375 11.381387,-3.251826"
         id="path2"
         inkscape:path-effect="#path-effect4"
         inkscape:original-d="m 58.17153,150.03558 c -2.062498,-0.40648 839.44843,139.61087 1.546878,-9.76677 -11.33076,-2.02 -0.432824,-12.63469 8.298927,-15.61553 1.385036,-10.71898 1.866789,-13.85036 0.54197,-18.06569 -1.324817,-4.21533 5.781024,-4.03467 14.091242,-11.7427 8.310219,-7.70803 14.633211,2.288322 11.381387,-3.251826"
         sodipodi:nodetypes="cscssc"
         inkscape:label="path18"
         transform="translate(4.9074843,-0.63002965)" />
      <path
         d="m 103.34039,108.2903 c -5.600089,0.003 -11.198447,1.27113 -16.246037,3.69848 -5.768673,2.77413 -10.804738,7.05565 -14.470434,12.30313 5.194863,17.23268 11.474339,34.13848 18.788517,50.58399 1.153439,2.59344 2.323463,5.19207 3.125391,7.9127 2.932966,0.072 5.862023,0.39833 8.797913,0.39739 6.40104,-0.002 12.79424,-1.68025 18.37097,-4.82244 5.57674,-3.14219 10.3242,-7.74117 13.64206,-13.21522 3.31787,-5.47404 5.19882,-11.81045 5.40432,-18.20819 0.20551,-6.39775 -1.26483,-12.84204 -4.22455,-18.51773 -2.95971,-5.67569 -7.40204,-10.57013 -12.76562,-14.06374 -5.36358,-3.49362 -11.63599,-5.57852 -18.02371,-5.99137 -0.79846,-0.0516 -1.59881,-0.0774 -2.39882,-0.077 z"
         style="fill:none;fill-rule:evenodd;stroke:#000000;stroke-width:1.465;stroke-linejoin:round"
         id="path3"
         sodipodi:nodetypes="sscsccsssssss" />
    </g>
    <g
       id="g10"
       transform="matrix(1.6322751,1.1557152,-1.1557152,1.6322751,112.08588,-196.51537)"
       style="display:none"
       inkscape:label="スタイリッシュ">
      <path
         d="m 94.413625,182.9128 c -0.598513,-0.0147 -1.196793,-0.0355 -1.795756,-0.0222 -3.534142,0.0781 -7.194857,0.79926 -10.00094,2.94917 -2.052268,1.57238 -3.557632,3.92333 -3.854545,6.4916 -0.148457,1.28414 0.0047,2.60656 0.476456,3.8101 0.471736,1.20354 1.264936,2.28402 2.293917,3.06648 1.19684,0.9101 2.695521,1.40042 4.19871,1.43402 1.503189,0.0336 3.005777,-0.38105 4.310332,-1.12861 1.304554,-0.74756 2.41243,-1.82156 3.252514,-3.06855 0.840084,-1.24698 1.415412,-2.66433 1.74408,-4.13153 0.657336,-2.93441 0.32765,-6.01954 -0.148559,-7.71 -0.04489,-0.16268 -0.476209,-1.69048 -0.476209,-1.69048 z"
         style="fill:none;fill-rule:evenodd;stroke:#000000;stroke-width:1.465;stroke-linejoin:round"
         id="path8"
         sodipodi:nodetypes="scsssssssscs" />
      <path
         style="fill:none;fill-opacity:1;fill-rule:evenodd;stroke:#000000;stroke-width:1.465;stroke-linecap:butt;stroke-linejoin:round;stroke-dasharray:none;stroke-opacity:1;paint-order:normal"
         d="m 58.17153,150.03558 c 0.127554,-3.30143 0.648008,-6.5875 1.546878,-9.76677 1.615894,-5.71535 4.466092,-11.07838 8.298927,-15.61553 -2.703272,-5.64499 -2.494835,-12.59291 0.54197,-18.06569 2.287372,-4.12219 6.012176,-7.316073 10.144608,-9.584891 4.168961,-2.288874 8.811472,-3.710614 13.54721,-4.14875"
         id="path9"
         inkscape:path-effect="#path-effect11"
         inkscape:original-d="m 58.17153,150.03558 c -2.062498,-0.40648 839.44843,139.61087 1.546878,-9.76677 -11.33076,-2.02 -0.432824,-12.63469 8.298927,-15.61553 1.385036,-10.71898 -1.924939,-12.56931 0.54197,-18.06569 1.90493,-4.24427 6.123903,-7.244697 10.144608,-9.584891 4.081712,-2.375702 16.799034,1.391398 13.54721,-4.14875"
         sodipodi:nodetypes="cscaac"
         inkscape:label="path18"
         transform="translate(4.9074843,-0.63002965)" />
      <path
         d="m 72.623919,124.29191 c 5.194863,17.23268 11.474339,34.13848 18.788517,50.58399 1.153439,2.59344 2.323463,5.19207 3.125391,7.9127 19.611863,-2.66431 38.853803,-26.02241 27.070423,-50.8058 -5.28093,-11.10711 -29.842213,-29.44976 -48.984331,-7.69089 z"
         style="fill:none;fill-rule:evenodd;stroke:#000000;stroke-width:1.465;stroke-linejoin:round"
         id="path10"
         sodipodi:nodetypes="cscsc" />
    </g>
    <g
       id="g4"
       transform="translate(-8.6954331,-14.402515)">
      <g
         id="g1"
         transform="matrix(1.6322751,1.1557152,-1.1557152,1.6322751,116.69829,-223.6534)"
         style="display:inline;fill:#434343;fill-opacity:1;stroke:#434343;stroke-opacity:1"
         inkscape:label="スタイリッシュ">
        <path
           d="m 94.413625,182.9128 c -0.598513,-0.0147 -1.196793,-0.0355 -1.795756,-0.0222 -3.534142,0.0781 -7.194857,0.79926 -10.00094,2.94917 -2.052268,1.57238 -3.557632,3.92333 -3.854545,6.4916 -0.148457,1.28414 0.0047,2.60656 0.476456,3.8101 0.471736,1.20354 1.264936,2.28402 2.293917,3.06648 1.19684,0.9101 2.695521,1.40042 4.19871,1.43402 1.503189,0.0336 3.005777,-0.38105 4.310332,-1.12861 1.304554,-0.74756 2.41243,-1.82156 3.252514,-3.06855 0.840084,-1.24698 1.415412,-2.66433 1.74408,-4.13153 0.657336,-2.93441 0.32765,-6.01954 -0.148559,-7.71 -0.04489,-0.16268 -0.476209,-1.69048 -0.476209,-1.69048 z"
           style="display:inline;fill:#434343;fill-opacity:1;fill-rule:evenodd;stroke:#434343;stroke-width:1.465;stroke-linecap:round;stroke-linejoin:round;stroke-opacity:1"
           id="path15"
           sodipodi:nodetypes="scsssssssscs" />
        <path
           style="display:inline;fill:#434343;fill-opacity:1;fill-rule:evenodd;stroke:#434343;stroke-width:1.465;stroke-linecap:round;stroke-linejoin:miter;stroke-dasharray:none;stroke-dashoffset:0;stroke-opacity:1;paint-order:normal"
           d="m 55.156003,140.44367 c 3.461504,-1.01719 6.600795,-3.10344 8.879262,-5.9008 2.278467,-2.79737 3.68634,-6.29387 3.98207,-9.88959 -1.471684,-2.7854 -2.207397,-5.95549 -2.112931,-9.10436 0.09447,-3.14887 1.01889,-6.26916 2.654901,-8.96133 2.434519,-4.00617 6.291808,-6.914276 10.144608,-9.584891 4.205712,-2.91524 8.521718,-5.671358 12.935685,-8.260478 -1.579796,4.192015 -4.177197,7.996441 -7.506129,10.994266 -3.65328,3.289913 -8.122703,5.585033 -11.709191,8.947633 -1.793244,1.6813 -3.364411,3.64487 -4.320899,5.9093 -0.956488,2.26442 -1.263577,4.85161 -0.560166,7.20697 0.128899,0.43162 0.290434,0.85342 0.404727,1.28913 0.114294,0.43571 0.1808,0.89158 0.114748,1.33716 -0.0113,0.0762 -0.02644,0.15189 -0.04535,0.2266 -0.365888,0.45943 -0.733227,0.9177 -1.102012,1.37481 -2.989218,3.70513 -6.085842,7.34658 -9.627957,10.52727 -1.845953,1.6576 -3.80838,3.18547 -5.86802,4.5686 1.264882,-0.0942 2.519722,-0.32269 3.736654,-0.68029 z"
           id="path18"
           inkscape:path-effect="#path-effect19"
           inkscape:original-d="m 55.156003,140.44367 c -11.33076,-2.02 4.129581,-12.80955 12.861332,-15.79039 1.385036,-10.71898 -1.924939,-12.56931 0.54197,-18.06569 1.90493,-4.24427 6.47707,-6.722768 10.144608,-9.584891 4.033262,-3.147532 15.766046,-4.899054 12.935685,-8.260478 3.673286,7.718867 0.80409,3.286236 -7.506129,10.994266 -8.310218,7.708033 -17.915075,17.848573 -16.590256,22.063903 0.66241,2.10767 1.335493,0.88485 0.519475,2.62629 -0.816018,1.74143 0.647165,-5.13289 -0.04535,0.2266 -4.365875,1.49042 1.011469,-2.08332 -1.102012,1.37481 -2.113481,3.45813 -15.293337,9.51727 -9.627957,10.52727 837.901581,149.37755 -5.86802,4.5686 -5.86802,4.5686 0,0 841.638211,148.69735 3.736654,-0.68029 z"
           sodipodi:nodetypes="scaacssscsscs"
           inkscape:label="path18"
           transform="translate(4.9074843,-0.63002965)" />
        <path
           d="m 73.314534,124.11688 20.896451,58.80766 z"
           style="display:inline;fill:#434343;fill-opacity:1;fill-rule:evenodd;stroke:#434343;stroke-width:1.815;stroke-linejoin:round;stroke-dasharray:none;stroke-opacity:1"
           id="path14"
           sodipodi:nodetypes="ccc" />
        <path
           d="m 121.59502,131.89668 c -5.28093,-11.10711 -29.666929,-29.30959 -48.958955,-7.44458 3.515788,-5.14134 8.389799,-9.47691 14.158472,-12.25104 5.04759,-2.42735 10.645948,-3.69548 16.246033,-3.69848 0.80001,-4e-4 1.60036,0.0254 2.39882,0.077 6.38772,0.41285 12.66013,2.49775 18.02371,5.99137 5.36358,3.49361 9.80591,8.38805 12.76562,14.06374 2.95972,5.67569 4.43006,12.11998 4.22455,18.51773 -0.2055,6.39774 -2.08645,12.73415 -5.40432,18.20819 -3.31786,5.47405 -8.06532,10.07303 -13.64206,13.21522 -5.57673,3.14219 -11.96993,4.82044 -18.37097,4.82244 -2.93589,9.4e-4 -5.878174,-0.41151 -8.661232,-0.58965 19.761772,-2.77045 39.003712,-26.12855 27.220332,-50.91194 z"
           style="display:inline;fill:#434343;fill-opacity:1;fill-rule:evenodd;stroke:#434343;stroke-width:1.465;stroke-linecap:butt;stroke-linejoin:round;stroke-opacity:1"
           id="path20"
           sodipodi:nodetypes="scssssssssccs" />
      </g>
      <text
         xml:space="preserve"
         transform="matrix(14.992876,0,0,14.193272,-14516.593,-3618.0292)"
         id="text2"
         style="font-style:normal;font-variant:normal;font-weight:600;font-stretch:normal;font-size:12px;font-family:'Hiragino Mincho ProN';-inkscape-font-specification:'Hiragino Mincho ProN, Semi-Bold';font-variant-ligatures:normal;font-variant-caps:normal;font-variant-numeric:normal;font-variant-east-asian:normal;white-space:pre;shape-inside:url(#rect3);fill:#434343;fill-opacity:1;stroke:none;stroke-width:0.167151;stroke-linecap:round;stroke-dasharray:none;stroke-opacity:1"><tspan
           x="981.90625"
           y="269.75531"
           id="tspan1">suke</tspan></text>
    </g>
  </g>
</svg>
